<?xml version="1.0" encoding="UTF-8"?>
<svg id="Capa_1" data-name="Capa 1" xmlns="http://www.w3.org/2000/svg" viewBox="0 0 381.80805 386.40365">
  <defs>
    <style>
      .cls-1 {
        fill: #030402;
      }

      .cls-2 {
        fill: #a2f906;
      }
    </style>
  </defs>
  <path class="cls-2" d="M226.20875,361.78243l-95.02065.08329.81369-42.73126c2.45348-20.42407,7.75422-39.82362,16.43164-58.14948.62959-1.32963,1.29863-2.47546.67528-3.60584-.39256-.71186-1.66596-1.83129-3.21336-1.83184l-127.47873-.04562c-1.58289-.00057-3.0817-1.53135-3.08225-3.02972l-.03271-89.41398,18.37894-17.77927c2.66691-2.5799,5.83618-3.78525,8.16506-7.02598,2.24466-3.12354,6.3846-4.84703,10.2958-4.66234,15.53491.73357,30.24609-1.70793,45.05583-5.87425l12.45216-5.2427c11.61561-4.89048,9.03432-5.76611,14.4526-17.76018,5.18757-11.48337,7.82122-22.48449,7.2301-35.17356-.2414-5.18191,1.78377-10.36627.39579-16.06907l16.41824-16.81712c3.17034-3.24737,6.80098-5.74698,9.61145-9.60891,1.11414-1.53096,4.27889-4.26046,6.57379-4.26491l84.76685-.16422c2.51935-.00488,4.95249,1.53568,5.01129,4.24343.51861,23.88095-1.70397,47.38392-8.31298,70.35703-3.35049,11.64642-8.04597,21.95769-13.31901,32.7301-.47666.97377-.587,4.54554,1.03457,4.54386l111.32222-.11536c4.26134-.00442,8.1638-2.41498,12.40662.89021l.01081,86.27785c.0005,4.01936-3.91731,6.65777-6.09809,8.83111l-10.23499,10.20004c-4.20869,4.19432-8.1124,11.39935-13.80632,13.44174l-21.18985,2.3653c-14.4638,1.61451-28.51143,6.02938-40.40842,14.69912-4.51371,3.2893-5.16599,10.16116-6.89762,14.91017-6.62909,18.18031-3.55139,37.28193-5.89088,47.45834-1.03327,4.49456-7.28401,7.32434-10.25239,10.31104l-12.07265,12.14714c-1.58404,1.59381-3.18494,2.55332-4.19181,5.87584ZM172.51008,323.58442l41.06405-.29139c8.96402-.06361,17.78601,1.42248,27.23898-.32353l1.37636-17.38578c1.89759-23.96991,12.66158-48.15708,30.87156-64.26974,19.84971-16.89462,45.16836-25.57374,72.07633-25.84836l-.09745-69.92879-134.86677-.17253c16.51876-26.30607,26.99778-53.21138,30.11864-82.62167.98838-9.31427,2.57021-17.72376,1.61042-26.90577-1.76432-.72335-3.71553-1.28942-5.77298-1.2843l-63.5858.15806-.74272,13.76379c-1.16314,21.55485-8.38777,41.7086-22.2736,58.72036-6.53991,8.01215-14.84624,14.43641-23.80334,20.05067-20.15702,12.6343-43.66546,17.96692-67.66629,18.16657-1.50272,2.28688-1.93988,5.2959-1.94006,8.2476l-.00378,60.96447,22.1935.5791,114.75413-.08213c3.48096-.00249,6.2653-1.17228,9.60309.32478.45286,1.78625-.53904,3.37781-1.71403,5.08335-12.13613,17.61612-20.11307,37.10159-24.86629,57.96184l-3.80429,24.13522.23034,20.95819Z"/>
  <path class="cls-1" d="M172.51008,323.58442l-.23034-20.95819,3.80429-24.13522c4.75322-20.86025,12.73016-40.34572,24.86629-57.96184,1.17499-1.70554,2.16689-3.2971,1.71403-5.08335-3.33779-1.49705-6.12214-.32727-9.60309-.32478l-114.75413.08213-22.1935-.5791.00378-60.96447c.00018-2.95171.43734-5.96072,1.94006-8.2476,24.00083-.19965,47.50927-5.53227,67.66629-18.16657,8.9571-5.61426,17.26343-12.03852,23.80334-20.05067,13.88583-17.01176,21.11046-37.16551,22.2736-58.72036l.74272-13.76379,63.5858-.15806c2.05745-.00511,4.00866.56095,5.77298,1.2843.95979,9.182-.62204,17.59149-1.61042,26.90577-3.12086,29.41029-13.59989,56.3156-30.11864,82.62167l134.86677.17253.09745,69.92879c-26.90797.27462-52.22662,8.95374-72.07633,25.84836-18.20998,16.11266-28.97396,40.29983-30.87156,64.26974l-1.37636,17.38578c-9.45298,1.74602-18.27496.25992-27.23898.32353l-41.06405.29139Z"/>
</svg>